<svg width="40" height="40" viewBox="0 0 40 40" fill="none" xmlns="http://www.w3.org/2000/svg">
<g clip-path="url(#clip0_178_184)">
<path d="M28.3335 4.99999H35.0002C35.4422 4.99999 35.8661 5.17558 36.1787 5.48815C36.4912 5.80071 36.6668 6.22463 36.6668 6.66666V33.3333C36.6668 33.7753 36.4912 34.1993 36.1787 34.5118C35.8661 34.8244 35.4422 35 35.0002 35H5.00016C4.55814 35 4.13421 34.8244 3.82165 34.5118C3.50909 34.1993 3.3335 33.7753 3.3335 33.3333V6.66666C3.3335 6.22463 3.50909 5.80071 3.82165 5.48815C4.13421 5.17558 4.55814 4.99999 5.00016 4.99999H11.6668V1.66666H15.0002V4.99999H25.0002V1.66666H28.3335V4.99999ZM6.66683 15V31.6667H33.3335V15H6.66683ZM10.0002 21.6667H18.3335V28.3333H10.0002V21.6667Z" fill="#7F39D8"/>
</g>
<defs>
<clipPath id="clip0_178_184">
<rect width="40" height="40" fill="white"/>
</clipPath>
</defs>
</svg>
