<?xml version="1.0" encoding="UTF-8" standalone="no"?>
<svg
   height="40"
   viewBox="0 0 40 40"
   width="40"
   version="1.1"
   id="svg131"
   sodipodi:docname="clock.svg"
   xml:space="preserve"
   inkscape:version="1.2.2 (732a01da63, 2022-12-09)"
   xmlns:inkscape="http://www.inkscape.org/namespaces/inkscape"
   xmlns:sodipodi="http://sodipodi.sourceforge.net/DTD/sodipodi-0.dtd"
   xmlns="http://www.w3.org/2000/svg"
   xmlns:svg="http://www.w3.org/2000/svg"><defs
     id="defs135"><clipPath
       id="clip0_178_184"><rect
         width="40"
         height="40"
         fill="#ffffff"
         id="rect395"
         x="0"
         y="0" /></clipPath></defs><sodipodi:namedview
     id="namedview133"
     pagecolor="#ffffff"
     bordercolor="#000000"
     borderopacity="0.25"
     inkscape:showpageshadow="2"
     inkscape:pageopacity="0.0"
     inkscape:pagecheckerboard="0"
     inkscape:deskcolor="#d1d1d1"
     showgrid="false"
     inkscape:zoom="6.0625"
     inkscape:cx="-24.412371"
     inkscape:cy="24.412371"
     inkscape:window-width="1920"
     inkscape:window-height="974"
     inkscape:window-x="-11"
     inkscape:window-y="-11"
     inkscape:window-maximized="1"
     inkscape:current-layer="svg131" /><path
     d="m 20,3.4639181 c -9.185567,0 -16.7010308,7.5154629 -16.7010308,16.7010299 0,9.185567 7.5154638,16.701031 16.7010308,16.701031 9.185567,0 16.701031,-7.515464 16.701031,-16.701031 C 36.701031,10.979381 29.185567,3.4639181 20,3.4639181 Z m 0,4.175257 c 6.930928,0 12.525773,5.5948459 12.525773,12.5257729 0,6.930928 -5.594845,12.525773 -12.525773,12.525773 -6.930927,0 -12.5257736,-5.594845 -12.5257736,-12.525773 C 7.4742264,13.234021 13.069073,7.6391751 20,7.6391751 Z m -2.087628,4.1752579 v 9.269072 l 0.668041,0.542783 2.087629,2.087629 1.419587,1.586599 3.006186,-3.006186 -1.586598,-1.419588 -1.419588,-1.419587 v -7.557217 h -4.175257 z"
     id="path129"
     style="fill:#7f39d8;fill-opacity:1;stroke-width:4.17526" /></svg>
