<?xml version="1.0" encoding="UTF-8" standalone="no"?>
<svg
   width="130"
   height="35"
   viewBox="0 0 130 35"
   version="1.1"
   id="svg94"
   xmlns:xlink="http://www.w3.org/1999/xlink"
   xmlns="http://www.w3.org/2000/svg"
   xmlns:svg="http://www.w3.org/2000/svg">
  <defs
     id="defs67">
    <filter
       id="alpha"
       filterUnits="objectBoundingBox"
       x="0"
       y="0"
       width="1"
       height="1">
      <feColorMatrix
         type="matrix"
         in="SourceGraphic"
         values="0 0 0 0 1 0 0 0 0 1 0 0 0 0 1 0 0 0 1 0"
         id="feColorMatrix9" />
    </filter>
    <mask
       id="mask0">
      <g
         filter="url(#alpha)"
         id="g14">
        <rect
           x="0"
           y="0"
           width="100"
           height="26"
           style="fill:#000000;fill-opacity:0.996078;stroke:none"
           id="rect12" />
      </g>
    </mask>
    <clipPath
       id="clip1">
      <rect
         x="0"
         y="0"
         width="100"
         height="26"
         id="rect17" />
    </clipPath>
    <g
       id="surface5"
       clip-path="url(#clip1)">
      <path
         style="fill:#7d35d7;fill-opacity:1;fill-rule:evenodd;stroke:none"
         d="m 87.464844,5.140625 c 0.898437,-0.125 1.570312,0.199219 2.023437,0.976563 0.292969,0.964843 -0.0039,1.671874 -0.898437,2.121093 C 87.882812,8.472656 87.226562,8.378906 86.613281,7.964844 86.121094,7.488281 85.964844,6.910156 86.144531,6.242188 86.390625,5.632812 86.828125,5.265625 87.464844,5.140625 Z m 0,0"
         id="path20" />
    </g>
    <mask
       id="mask1">
      <g
         filter="url(#alpha)"
         id="g25">
        <rect
           x="0"
           y="0"
           width="100"
           height="26"
           style="fill:#000000;fill-opacity:0.996078;stroke:none"
           id="rect23" />
      </g>
    </mask>
    <clipPath
       id="clip2">
      <rect
         x="0"
         y="0"
         width="100"
         height="26"
         id="rect28" />
    </clipPath>
    <g
       id="surface8"
       clip-path="url(#clip2)">
      <path
         style="fill:#7d35d7;fill-opacity:1;fill-rule:evenodd;stroke:none"
         d="m 46.140625,6.179688 c 0.992187,0 1.984375,0 2.976563,0 -0.0039,2.351562 0,4.699218 0.01562,7.050781 0.941407,-1.289063 1.886719,-2.570313 2.84375,-3.847657 1.222657,-0.039062 2.449219,-0.039062 3.675782,0 -1.332032,1.609376 -2.660156,3.222657 -3.980469,4.835938 1.347656,1.597656 2.695313,3.195312 4.039063,4.792969 -1.234376,0.01953 -2.46875,0.01953 -3.707032,0 -0.953125,-1.320313 -1.910156,-2.636719 -2.871094,-3.953125 -0.01562,1.324218 -0.01953,2.644531 -0.01562,3.96875 -0.992188,0 -1.984376,0 -2.976563,0 0,-4.28125 0,-8.566406 0,-12.847656 z m 0,0"
         id="path31" />
    </g>
    <mask
       id="mask2">
      <g
         filter="url(#alpha)"
         id="g36">
        <rect
           x="0"
           y="0"
           width="100"
           height="26"
           style="fill:#000000;fill-opacity:0.996078;stroke:none"
           id="rect34" />
      </g>
    </mask>
    <clipPath
       id="clip3">
      <rect
         x="0"
         y="0"
         width="100"
         height="26"
         id="rect39" />
    </clipPath>
    <g
       id="surface11"
       clip-path="url(#clip3)">
      <path
         style="fill:#7d35d7;fill-opacity:1;fill-rule:evenodd;stroke:none"
         d="m 60.117188,9.199219 c 1.019531,-0.078125 1.933593,0.191406 2.734374,0.808593 0.210938,0.191407 0.398438,0.402344 0.5625,0.628907 0.01563,-0.429688 0.02344,-0.855469 0.01563,-1.285157 0.992187,0 1.984374,0 2.980468,0 0,3.226563 0,6.449219 0,9.675782 -0.996094,0 -1.988281,0 -2.980468,0 0.0078,-0.4375 0,-0.875 -0.01563,-1.3125 -0.5625,0.792968 -1.324218,1.265625 -2.292968,1.417968 -2.148438,0.195313 -3.652344,-0.691406 -4.511719,-2.667968 -0.402344,-1.175782 -0.492187,-2.378906 -0.273437,-3.601563 0.25,-1.378906 0.964843,-2.429687 2.140624,-3.160156 0.519532,-0.269531 1.066407,-0.4375 1.640626,-0.503906 z M 61,11.824219 c 1.296875,-0.06641 2.089844,0.535156 2.386719,1.800781 0.113281,0.671875 0.02344,1.3125 -0.273438,1.921875 -0.546875,0.835937 -1.3125,1.15625 -2.296875,0.960937 C 59.925781,16.230469 59.414062,15.625 59.28125,14.695312 59.179688,14.042969 59.27345,13.421875 59.554688,12.832031 59.902344,12.296875 60.382812,11.960938 61,11.824219 Z m 0,0"
         id="path42" />
    </g>
    <mask
       id="mask3">
      <g
         filter="url(#alpha)"
         id="g47">
        <rect
           x="0"
           y="0"
           width="100"
           height="26"
           style="fill:#000000;fill-opacity:0.996078;stroke:none"
           id="rect45" />
      </g>
    </mask>
    <clipPath
       id="clip4">
      <rect
         x="0"
         y="0"
         width="100"
         height="26"
         id="rect50" />
    </clipPath>
    <g
       id="surface14"
       clip-path="url(#clip4)">
      <path
         style="fill:#7d35d7;fill-opacity:1;fill-rule:evenodd;stroke:none"
         d="m 79.746094,9.199219 c 1.371094,-0.109375 2.585937,0.261719 3.648437,1.117187 0.738281,0.691406 1.203125,1.542969 1.398438,2.546875 -1.054688,0.0039 -2.109375,0 -3.160157,-0.01563 -0.363281,-0.875 -1.011718,-1.21875 -1.945312,-1.039062 -0.664062,0.21875 -1.074219,0.671875 -1.230469,1.359375 -0.140625,0.679687 -0.140625,1.363281 0,2.042969 0.347657,1.175781 1.113281,1.609374 2.292969,1.296874 0.433594,-0.199218 0.726562,-0.523437 0.882812,-0.976562 1.050782,-0.01172 2.105469,-0.01953 3.160157,-0.01172 -0.394531,1.792969 -1.46875,2.957031 -3.222657,3.492188 -1.234374,0.296875 -2.441406,0.203125 -3.617187,-0.273438 C 76.414062,17.972656 75.550781,16.726562 75.355469,15 c -0.164063,-1.269531 0.04687,-2.472656 0.640625,-3.601562 0.878906,-1.363282 2.128906,-2.097657 3.75,-2.199219 z m 0,0"
         id="path53" />
    </g>
    <mask
       id="mask4">
      <g
         filter="url(#alpha)"
         id="g58">
        <rect
           x="0"
           y="0"
           width="100"
           height="26"
           style="fill:#000000;fill-opacity:0.996078;stroke:none"
           id="rect56" />
      </g>
    </mask>
    <clipPath
       id="clip5">
      <rect
         x="0"
         y="0"
         width="100"
         height="26"
         id="rect61" />
    </clipPath>
    <g
       id="surface17"
       clip-path="url(#clip5)">
      <path
         style="fill:#7d35d7;fill-opacity:1;fill-rule:evenodd;stroke:none"
         d="m 94.726562,9.199219 c 0.828126,-0.046875 1.628907,0.066406 2.402344,0.351562 1.269532,0.582031 1.96875,1.574219 2.097656,2.976563 -0.914062,0.0039 -1.824218,0 -2.734374,-0.01563 -0.148438,-0.632813 -0.542969,-0.988281 -1.1875,-1.066407 -0.46875,-0.08203 -0.871094,0.04297 -1.199219,0.378907 -0.152344,0.34375 -0.08594,0.632812 0.195312,0.871093 0.242188,0.132813 0.496094,0.234376 0.761719,0.304688 0.96875,0.207031 1.914062,0.5 2.824219,0.886719 1.304687,0.820312 1.695312,1.964843 1.171875,3.429687 -0.371094,0.71875 -0.933594,1.222656 -1.6875,1.511719 -1.253906,0.433594 -2.519532,0.464844 -3.796875,0.09375 -0.992188,-0.308594 -1.757813,-0.902344 -2.296875,-1.785156 -0.210938,-0.402344 -0.324219,-0.832031 -0.347656,-1.285157 0.984374,0 1.964843,0 2.949218,0 0.06641,0.523438 0.347656,0.863282 0.847656,1.023438 0.375,0.117188 0.75,0.128906 1.125,0.03125 C 96.375,16.761719 96.5625,16.433594 96.414062,15.914062 96.324219,15.761719 96.199219,15.65625 96.035156,15.59375 95.320312,15.324219 94.59375,15.109375 93.847656,14.953125 93.199219,14.816406 92.609375,14.554688 92.085938,14.160156 91.410156,13.554688 91.132812,12.796875 91.25,11.886719 91.402344,10.921875 91.902344,10.203125 92.753906,9.734375 93.378906,9.425781 94.039062,9.25 94.726562,9.199219 Z m 0,0"
         id="path64" />
    </g>
  </defs>
  <g
     id="surface1"
     transform="matrix(1.2853012,0,0,1.2853012,1.0399083,0.37329095)">
    <use
       xlink:href="#surface5"
       mask="url(#mask0)"
       id="use69" />
    <path
       style="fill:#ffd957;fill-opacity:1;fill-rule:evenodd;stroke:none"
       d="M 19.675781,12.648438 C 19.492188,11.136719 18.703125,10.082031 17.304688,9.492188 15.34375,8.878906 13.753906,9.390625 12.535156,11.03125 11.878906,9.992188 10.9375,9.40625 9.707031,9.277344 8.710938,9.152344 7.808594,9.386719 7.003906,9.980469 6.804688,10.132812 6.632812,10.3125 6.488281,10.511719 6.46875,10.125 6.445312,9.738281 6.425781,9.351562 c -0.980469,0 -1.964843,0 -2.945312,0 0,3.226563 0,6.449219 0,9.675782 0.980469,0 1.964843,0 2.945312,0 -0.00391,-1.863282 0,-3.722656 0.015625,-5.585938 C 6.59375,12.394531 7.195312,11.855469 8.25,11.824219 c 1.0625,0.0078 1.6875,0.535156 1.867188,1.585937 0.01562,1.875 0.02344,3.746094 0.01562,5.617188 0.972657,0 1.945313,0 2.917969,0 -0.0039,-1.839844 0,-3.683594 0.01563,-5.523438 0.05859,-0.84375 0.492188,-1.386718 1.289063,-1.632812 0.609375,-0.136719 1.175781,-0.04297 1.703125,0.273437 0.390625,0.320313 0.617187,0.734375 0.683594,1.238281 0.01562,1.878907 0.01953,3.761719 0.01562,5.644532 0.972657,0 1.945313,0 2.917969,0 0,0.730468 0,1.464844 0,2.195312 -6.128906,0 -12.257812,0.0078 -18.382812,0.01563 C 0.761719,21.210938 0.390625,20.949219 0.183594,20.460938 0.132812,20.308594 0.0820312,20.15625 0.03125,20.003906 c -0.0195312,-1.261718 -0.0195312,-2.523437 0,-3.785156 0.945312,-0.05859 1.65625,-0.496094 2.125,-1.3125 C 2.574219,13.84375 2.375,12.914062 1.566406,12.113281 1.109375,11.765625 0.59375,11.585938 0.015625,11.582031 c -0.0039062,-1.375 0,-2.746093 0.015625,-4.121093 C 0.160156,6.792969 0.539062,6.339844 1.167969,6.101562 2.054688,6.070312 2.941406,6.054688 3.828125,6.058594 c 5.28125,0.027344 10.566406,0.035156 15.847656,0.03125 0,2.183594 0,4.371094 0,6.558594 z m 0,0"
       id="path71" />
    <use
       xlink:href="#surface8"
       mask="url(#mask1)"
       id="use73" />
    <path
       style="fill:#ffd954;fill-opacity:1;fill-rule:evenodd;stroke:none"
       d="m 25.144531,9.199219 c 1.234375,-0.101563 2.273438,0.292969 3.113281,1.191406 0.07031,0.08594 0.128907,0.179687 0.183594,0.273437 0.01563,-0.4375 0.01953,-0.875 0.01563,-1.3125 0.992188,0 1.984375,0 2.976563,0 0,3.226563 0,6.449219 0,9.675782 -0.992188,0 -1.984375,0 -2.976563,0 0.0039,-0.4375 0,-0.875 -0.01563,-1.3125 -0.488281,0.703125 -1.152344,1.15625 -1.992187,1.359375 -1.953125,0.363281 -3.457031,-0.292969 -4.511719,-1.96875 -0.625,-1.234375 -0.839844,-2.535157 -0.636719,-3.90625 0.175781,-1.378907 0.808594,-2.480469 1.898438,-3.3125 0.59375,-0.390625 1.242187,-0.617188 1.945312,-0.6875 z m 0.882813,2.625 c 1.308594,-0.0625 2.101562,0.546875 2.382812,1.832031 0.105469,0.636719 0.02344,1.246094 -0.242187,1.832031 -0.625,0.972657 -1.488281,1.285157 -2.597657,0.929688 -0.734374,-0.339844 -1.15625,-0.914063 -1.261718,-1.722657 -0.140625,-0.78125 0.01172,-1.492187 0.457031,-2.136718 0.335937,-0.390625 0.757813,-0.636719 1.261719,-0.734375 z m 0,0"
       id="path75" />
    <use
       xlink:href="#surface11"
       mask="url(#mask2)"
       id="use77" />
    <use
       xlink:href="#surface14"
       mask="url(#mask3)"
       id="use79" />
    <use
       xlink:href="#surface17"
       mask="url(#mask4)"
       id="use81" />
    <path
       style="fill:#fffdfd;fill-opacity:1;fill-rule:evenodd;stroke:none"
       d="m 19.675781,12.648438 c 0.03906,2.132812 0.03906,4.257812 0,6.378906 -0.972656,0 -1.945312,0 -2.917969,0 0.0039,-1.882813 0,-3.765625 -0.01562,-5.644532 -0.06641,-0.503906 -0.292969,-0.917968 -0.683594,-1.238281 -0.527344,-0.316406 -1.09375,-0.410156 -1.703125,-0.273437 -0.796875,0.246094 -1.230469,0.789062 -1.289063,1.632812 -0.01563,1.839844 -0.01953,3.683594 -0.01563,5.523438 -0.972656,0 -1.945312,0 -2.917969,0 0.0078,-1.871094 0,-3.742188 -0.01562,-5.617188 C 9.9375,12.359375 9.3125,11.832031 8.25,11.824219 c -1.054688,0.03125 -1.65625,0.570312 -1.808594,1.617187 -0.015625,1.863282 -0.019531,3.722656 -0.015625,5.585938 -0.980469,0 -1.964843,0 -2.945312,0 0,-3.226563 0,-6.449219 0,-9.675782 0.980469,0 1.964843,0 2.945312,0 -0.00781,0.398438 0,0.796876 0.03125,1.191407 0.019531,-0.0039 0.027344,-0.01172 0.03125,-0.03125 0.144531,-0.199219 0.316407,-0.378907 0.515625,-0.53125 0.804688,-0.59375 1.707032,-0.828125 2.703125,-0.703125 1.230469,0.128906 2.171875,0.714844 2.828125,1.753906 1.21875,-1.640625 2.808594,-2.152344 4.769532,-1.539062 1.398437,0.589843 2.1875,1.644531 2.371093,3.15625 z m 0,0"
       id="path83" />
    <path
       style="fill:#7d35d7;fill-opacity:1;fill-rule:evenodd;stroke:none"
       d="m 74.246094,9.230469 c 0.09375,0 0.183594,0 0.273437,0 0,1.058593 0,2.117187 0,3.175781 -0.414062,-0.0078 -0.828125,0 -1.242187,0.01563 -1.1875,0.113281 -1.78125,0.769531 -1.78125,1.964844 -0.01172,1.546875 -0.01953,3.09375 -0.01172,4.640625 -0.996094,0 -1.988281,0 -2.980469,0 0,-3.226563 0,-6.449219 0,-9.675782 0.992188,0 1.984375,0 2.980469,0 -0.0078,0.519532 0,1.039063 0.01172,1.558594 0.664062,-0.976562 1.582031,-1.535156 2.75,-1.679687 z m 0,0"
       id="path85" />
    <path
       style="fill:#ffe697;fill-opacity:1;fill-rule:evenodd;stroke:none"
       d="m 6.425781,9.351562 c 0.019531,0.386719 0.042969,0.773438 0.0625,1.160157 -0.00391,0.01953 -0.011719,0.02734 -0.03125,0.03125 C 6.425781,10.148438 6.417969,9.75 6.425781,9.351562 Z m 0,0"
       id="path87" />
    <path
       style="fill:#ffd954;fill-opacity:1;fill-rule:evenodd;stroke:none"
       d="m 33.441406,9.351562 c 0.992188,0 1.984375,0 2.976563,0 -0.0039,1.875 0,3.746094 0.01563,5.617188 0.148437,1.050781 0.753906,1.609375 1.808594,1.679688 1.070312,-0.05469 1.683593,-0.613282 1.835937,-1.679688 0.01563,-1.871094 0.01953,-3.742188 0.01563,-5.617188 0.992188,0 1.984375,0 2.976562,0 0,3.226563 0,6.449219 0,9.675782 -0.992187,0 -1.984374,0 -2.976562,0 0.0039,-0.417969 0,-0.835938 -0.01563,-1.25 -0.738281,0.914062 -1.699219,1.371094 -2.886719,1.371094 -1.875,-0.04297 -3.070312,-0.96875 -3.585937,-2.777344 -0.05078,-0.230469 -0.08984,-0.464844 -0.121094,-0.699219 -0.04297,-2.105469 -0.05859,-4.210937 -0.04297,-6.320313 z m 0,0"
       id="path89" />
    <path
       style="fill:#7d35d7;fill-opacity:1;fill-rule:evenodd;stroke:none"
       d="m 86.339844,9.351562 c 0.996094,0 1.988281,0 2.980468,0 0,3.226563 0,6.449219 0,9.675782 -0.992187,0 -1.984374,0 -2.980468,0 0,-3.226563 0,-6.449219 0,-9.675782 z m 0,0"
       id="path91" />
  </g>
</svg>
