<?xml version="1.0" encoding="UTF-8"?>
<svg xmlns="http://www.w3.org/2000/svg" xmlns:xlink="http://www.w3.org/1999/xlink" width="100px" height="26px" viewBox="0 0 100 26" version="1.1">
<defs>
<filter id="alpha" filterUnits="objectBoundingBox" x="0%" y="0%" width="100%" height="100%">
  <feColorMatrix type="matrix" in="SourceGraphic" values="0 0 0 0 1 0 0 0 0 1 0 0 0 0 1 0 0 0 1 0"/>
</filter>
<mask id="mask0">
  <g filter="url(#alpha)">
<rect x="0" y="0" width="100" height="26" style="fill:rgb(0%,0%,0%);fill-opacity:0.996078;stroke:none;"/>
  </g>
</mask>
<clipPath id="clip1">
  <rect x="0" y="0" width="100" height="26"/>
</clipPath>
<g id="surface5" clip-path="url(#clip1)">
<path style=" stroke:none;fill-rule:evenodd;fill:rgb(49.411765%,21.960784%,84.313725%);fill-opacity:1;" d="M 87.464844 5.140625 C 88.363281 5.015625 89.035156 5.339844 89.488281 6.117188 C 89.78125 7.082031 89.484375 7.789062 88.589844 8.238281 C 87.882812 8.472656 87.226562 8.378906 86.613281 7.964844 C 86.121094 7.488281 85.964844 6.910156 86.144531 6.242188 C 86.390625 5.632812 86.828125 5.265625 87.464844 5.140625 Z M 87.464844 5.140625 "/>
</g>
<mask id="mask1">
  <g filter="url(#alpha)">
<rect x="0" y="0" width="100" height="26" style="fill:rgb(0%,0%,0%);fill-opacity:0.996078;stroke:none;"/>
  </g>
</mask>
<clipPath id="clip2">
  <rect x="0" y="0" width="100" height="26"/>
</clipPath>
<g id="surface8" clip-path="url(#clip2)">
<path style=" stroke:none;fill-rule:evenodd;fill:rgb(49.411765%,21.960784%,84.313725%);fill-opacity:1;" d="M 46.140625 6.179688 C 47.132812 6.179688 48.125 6.179688 49.117188 6.179688 C 49.113281 8.53125 49.117188 10.878906 49.132812 13.230469 C 50.074219 11.941406 51.019531 10.660156 51.976562 9.382812 C 53.199219 9.34375 54.425781 9.34375 55.652344 9.382812 C 54.320312 10.992188 52.992188 12.605469 51.671875 14.21875 C 53.019531 15.816406 54.367188 17.414062 55.710938 19.011719 C 54.476562 19.03125 53.242188 19.03125 52.003906 19.011719 C 51.050781 17.691406 50.09375 16.375 49.132812 15.058594 C 49.117188 16.382812 49.113281 17.703125 49.117188 19.027344 C 48.125 19.027344 47.132812 19.027344 46.140625 19.027344 C 46.140625 14.746094 46.140625 10.460938 46.140625 6.179688 Z M 46.140625 6.179688 "/>
</g>
<mask id="mask2">
  <g filter="url(#alpha)">
<rect x="0" y="0" width="100" height="26" style="fill:rgb(0%,0%,0%);fill-opacity:0.996078;stroke:none;"/>
  </g>
</mask>
<clipPath id="clip3">
  <rect x="0" y="0" width="100" height="26"/>
</clipPath>
<g id="surface11" clip-path="url(#clip3)">
<path style=" stroke:none;fill-rule:evenodd;fill:rgb(49.411765%,21.960784%,84.313725%);fill-opacity:1;" d="M 60.117188 9.199219 C 61.136719 9.121094 62.050781 9.390625 62.851562 10.007812 C 63.0625 10.199219 63.25 10.410156 63.414062 10.636719 C 63.429688 10.207031 63.4375 9.78125 63.429688 9.351562 C 64.421875 9.351562 65.414062 9.351562 66.410156 9.351562 C 66.410156 12.578125 66.410156 15.800781 66.410156 19.027344 C 65.414062 19.027344 64.421875 19.027344 63.429688 19.027344 C 63.4375 18.589844 63.429688 18.152344 63.414062 17.714844 C 62.851562 18.507812 62.089844 18.980469 61.121094 19.132812 C 58.972656 19.328125 57.46875 18.441406 56.609375 16.464844 C 56.207031 15.289062 56.117188 14.085938 56.335938 12.863281 C 56.585938 11.484375 57.300781 10.433594 58.476562 9.703125 C 58.996094 9.433594 59.542969 9.265625 60.117188 9.199219 Z M 61 11.824219 C 62.296875 11.757812 63.089844 12.359375 63.386719 13.625 C 63.5 14.296875 63.410156 14.9375 63.113281 15.546875 C 62.566406 16.382812 61.800781 16.703125 60.816406 16.507812 C 59.925781 16.230469 59.414062 15.625 59.28125 14.695312 C 59.179688 14.042969 59.273438 13.421875 59.554688 12.832031 C 59.902344 12.296875 60.382812 11.960938 61 11.824219 Z M 61 11.824219 "/>
</g>
<mask id="mask3">
  <g filter="url(#alpha)">
<rect x="0" y="0" width="100" height="26" style="fill:rgb(0%,0%,0%);fill-opacity:0.996078;stroke:none;"/>
  </g>
</mask>
<clipPath id="clip4">
  <rect x="0" y="0" width="100" height="26"/>
</clipPath>
<g id="surface14" clip-path="url(#clip4)">
<path style=" stroke:none;fill-rule:evenodd;fill:rgb(49.411765%,21.960784%,84.313725%);fill-opacity:1;" d="M 79.746094 9.199219 C 81.117188 9.089844 82.332031 9.460938 83.394531 10.316406 C 84.132812 11.007812 84.597656 11.859375 84.792969 12.863281 C 83.738281 12.867188 82.683594 12.863281 81.632812 12.847656 C 81.269531 11.972656 80.621094 11.628906 79.6875 11.808594 C 79.023438 12.027344 78.613281 12.480469 78.457031 13.167969 C 78.316406 13.847656 78.316406 14.53125 78.457031 15.210938 C 78.804688 16.386719 79.570312 16.820312 80.75 16.507812 C 81.183594 16.308594 81.476562 15.984375 81.632812 15.53125 C 82.683594 15.519531 83.738281 15.511719 84.792969 15.519531 C 84.398438 17.3125 83.324219 18.476562 81.570312 19.011719 C 80.335938 19.308594 79.128906 19.214844 77.953125 18.738281 C 76.414062 17.972656 75.550781 16.726562 75.355469 15 C 75.191406 13.730469 75.402344 12.527344 75.996094 11.398438 C 76.875 10.035156 78.125 9.300781 79.746094 9.199219 Z M 79.746094 9.199219 "/>
</g>
<mask id="mask4">
  <g filter="url(#alpha)">
<rect x="0" y="0" width="100" height="26" style="fill:rgb(0%,0%,0%);fill-opacity:0.996078;stroke:none;"/>
  </g>
</mask>
<clipPath id="clip5">
  <rect x="0" y="0" width="100" height="26"/>
</clipPath>
<g id="surface17" clip-path="url(#clip5)">
<path style=" stroke:none;fill-rule:evenodd;fill:rgb(49.411765%,21.960784%,84.313725%);fill-opacity:1;" d="M 94.726562 9.199219 C 95.554688 9.152344 96.355469 9.265625 97.128906 9.550781 C 98.398438 10.132812 99.097656 11.125 99.226562 12.527344 C 98.3125 12.53125 97.402344 12.527344 96.492188 12.511719 C 96.34375 11.878906 95.949219 11.523438 95.304688 11.445312 C 94.835938 11.363281 94.433594 11.488281 94.105469 11.824219 C 93.953125 12.167969 94.019531 12.457031 94.300781 12.695312 C 94.542969 12.828125 94.796875 12.929688 95.0625 13 C 96.03125 13.207031 96.976562 13.5 97.886719 13.886719 C 99.191406 14.707031 99.582031 15.851562 99.058594 17.316406 C 98.6875 18.035156 98.125 18.539062 97.371094 18.828125 C 96.117188 19.261719 94.851562 19.292969 93.574219 18.921875 C 92.582031 18.613281 91.816406 18.019531 91.277344 17.136719 C 91.066406 16.734375 90.953125 16.304688 90.929688 15.851562 C 91.914062 15.851562 92.894531 15.851562 93.878906 15.851562 C 93.945312 16.375 94.226562 16.714844 94.726562 16.875 C 95.101562 16.992188 95.476562 17.003906 95.851562 16.90625 C 96.375 16.761719 96.5625 16.433594 96.414062 15.914062 C 96.324219 15.761719 96.199219 15.65625 96.035156 15.59375 C 95.320312 15.324219 94.59375 15.109375 93.847656 14.953125 C 93.199219 14.816406 92.609375 14.554688 92.085938 14.160156 C 91.410156 13.554688 91.132812 12.796875 91.25 11.886719 C 91.402344 10.921875 91.902344 10.203125 92.753906 9.734375 C 93.378906 9.425781 94.039062 9.25 94.726562 9.199219 Z M 94.726562 9.199219 "/>
</g>
</defs>
<g id="surface1">
<use xlink:href="#surface5" mask="url(#mask0)"/>
<path style=" stroke:none;fill-rule:evenodd;fill:rgb(100%,85.882353%,34.117647%);fill-opacity:1;" d="M 19.675781 12.648438 C 19.492188 11.136719 18.703125 10.082031 17.304688 9.492188 C 15.34375 8.878906 13.753906 9.390625 12.535156 11.03125 C 11.878906 9.992188 10.9375 9.40625 9.707031 9.277344 C 8.710938 9.152344 7.808594 9.386719 7.003906 9.980469 C 6.804688 10.132812 6.632812 10.3125 6.488281 10.511719 C 6.46875 10.125 6.445312 9.738281 6.425781 9.351562 C 5.445312 9.351562 4.460938 9.351562 3.480469 9.351562 C 3.480469 12.578125 3.480469 15.800781 3.480469 19.027344 C 4.460938 19.027344 5.445312 19.027344 6.425781 19.027344 C 6.421875 17.164062 6.425781 15.304688 6.441406 13.441406 C 6.59375 12.394531 7.195312 11.855469 8.25 11.824219 C 9.3125 11.832031 9.9375 12.359375 10.117188 13.410156 C 10.132812 15.285156 10.140625 17.15625 10.132812 19.027344 C 11.105469 19.027344 12.078125 19.027344 13.050781 19.027344 C 13.046875 17.1875 13.050781 15.34375 13.066406 13.503906 C 13.125 12.660156 13.558594 12.117188 14.355469 11.871094 C 14.964844 11.734375 15.53125 11.828125 16.058594 12.144531 C 16.449219 12.464844 16.675781 12.878906 16.742188 13.382812 C 16.757812 15.261719 16.761719 17.144531 16.757812 19.027344 C 17.730469 19.027344 18.703125 19.027344 19.675781 19.027344 C 19.675781 19.757812 19.675781 20.492188 19.675781 21.222656 C 13.546875 21.222656 7.417969 21.230469 1.292969 21.238281 C 0.761719 21.210938 0.390625 20.949219 0.183594 20.460938 C 0.132812 20.308594 0.0820312 20.15625 0.03125 20.003906 C 0.0117188 18.742188 0.0117188 17.480469 0.03125 16.21875 C 0.976562 16.160156 1.6875 15.722656 2.15625 14.90625 C 2.574219 13.84375 2.375 12.914062 1.566406 12.113281 C 1.109375 11.765625 0.59375 11.585938 0.015625 11.582031 C 0.0117188 10.207031 0.015625 8.835938 0.03125 7.460938 C 0.160156 6.792969 0.539062 6.339844 1.167969 6.101562 C 2.054688 6.070312 2.941406 6.054688 3.828125 6.058594 C 9.109375 6.085938 14.394531 6.09375 19.675781 6.089844 C 19.675781 8.273438 19.675781 10.460938 19.675781 12.648438 Z M 19.675781 12.648438 "/>
<use xlink:href="#surface8" mask="url(#mask1)"/>
<path style=" stroke:none;fill-rule:evenodd;fill:rgb(100%,85.490196%,33.72549%);fill-opacity:1;" d="M 25.144531 9.199219 C 26.378906 9.097656 27.417969 9.492188 28.257812 10.390625 C 28.328125 10.476562 28.386719 10.570312 28.441406 10.664062 C 28.457031 10.226562 28.460938 9.789062 28.457031 9.351562 C 29.449219 9.351562 30.441406 9.351562 31.433594 9.351562 C 31.433594 12.578125 31.433594 15.800781 31.433594 19.027344 C 30.441406 19.027344 29.449219 19.027344 28.457031 19.027344 C 28.460938 18.589844 28.457031 18.152344 28.441406 17.714844 C 27.953125 18.417969 27.289062 18.871094 26.449219 19.074219 C 24.496094 19.4375 22.992188 18.78125 21.9375 17.105469 C 21.3125 15.871094 21.097656 14.570312 21.300781 13.199219 C 21.476562 11.820312 22.109375 10.71875 23.199219 9.886719 C 23.792969 9.496094 24.441406 9.269531 25.144531 9.199219 Z M 26.027344 11.824219 C 27.335938 11.761719 28.128906 12.371094 28.410156 13.65625 C 28.515625 14.292969 28.433594 14.902344 28.167969 15.488281 C 27.542969 16.460938 26.679688 16.773438 25.570312 16.417969 C 24.835938 16.078125 24.414062 15.503906 24.308594 14.695312 C 24.167969 13.914062 24.320312 13.203125 24.765625 12.558594 C 25.101562 12.167969 25.523438 11.921875 26.027344 11.824219 Z M 26.027344 11.824219 "/>
<use xlink:href="#surface11" mask="url(#mask2)"/>
<use xlink:href="#surface14" mask="url(#mask3)"/>
<use xlink:href="#surface17" mask="url(#mask4)"/>
<path style=" stroke:none;fill-rule:evenodd;fill:rgb(100%,99.607843%,99.607843%);fill-opacity:1;" d="M 19.675781 12.648438 C 19.714844 14.78125 19.714844 16.90625 19.675781 19.027344 C 18.703125 19.027344 17.730469 19.027344 16.757812 19.027344 C 16.761719 17.144531 16.757812 15.261719 16.742188 13.382812 C 16.675781 12.878906 16.449219 12.464844 16.058594 12.144531 C 15.53125 11.828125 14.964844 11.734375 14.355469 11.871094 C 13.558594 12.117188 13.125 12.660156 13.066406 13.503906 C 13.050781 15.34375 13.046875 17.1875 13.050781 19.027344 C 12.078125 19.027344 11.105469 19.027344 10.132812 19.027344 C 10.140625 17.15625 10.132812 15.285156 10.117188 13.410156 C 9.9375 12.359375 9.3125 11.832031 8.25 11.824219 C 7.195312 11.855469 6.59375 12.394531 6.441406 13.441406 C 6.425781 15.304688 6.421875 17.164062 6.425781 19.027344 C 5.445312 19.027344 4.460938 19.027344 3.480469 19.027344 C 3.480469 15.800781 3.480469 12.578125 3.480469 9.351562 C 4.460938 9.351562 5.445312 9.351562 6.425781 9.351562 C 6.417969 9.75 6.425781 10.148438 6.457031 10.542969 C 6.476562 10.539062 6.484375 10.53125 6.488281 10.511719 C 6.632812 10.3125 6.804688 10.132812 7.003906 9.980469 C 7.808594 9.386719 8.710938 9.152344 9.707031 9.277344 C 10.9375 9.40625 11.878906 9.992188 12.535156 11.03125 C 13.753906 9.390625 15.34375 8.878906 17.304688 9.492188 C 18.703125 10.082031 19.492188 11.136719 19.675781 12.648438 Z M 19.675781 12.648438 "/>
<path style=" stroke:none;fill-rule:evenodd;fill:rgb(49.803922%,21.960784%,84.313725%);fill-opacity:1;" d="M 74.246094 9.230469 C 74.339844 9.230469 74.429688 9.230469 74.519531 9.230469 C 74.519531 10.289062 74.519531 11.347656 74.519531 12.40625 C 74.105469 12.398438 73.691406 12.40625 73.277344 12.421875 C 72.089844 12.535156 71.496094 13.191406 71.496094 14.386719 C 71.484375 15.933594 71.476562 17.480469 71.484375 19.027344 C 70.488281 19.027344 69.496094 19.027344 68.503906 19.027344 C 68.503906 15.800781 68.503906 12.578125 68.503906 9.351562 C 69.496094 9.351562 70.488281 9.351562 71.484375 9.351562 C 71.476562 9.871094 71.484375 10.390625 71.496094 10.910156 C 72.160156 9.933594 73.078125 9.375 74.246094 9.230469 Z M 74.246094 9.230469 "/>
<path style=" stroke:none;fill-rule:evenodd;fill:rgb(100%,90.980392%,59.215686%);fill-opacity:1;" d="M 6.425781 9.351562 C 6.445312 9.738281 6.46875 10.125 6.488281 10.511719 C 6.484375 10.53125 6.476562 10.539062 6.457031 10.542969 C 6.425781 10.148438 6.417969 9.75 6.425781 9.351562 Z M 6.425781 9.351562 "/>
<path style=" stroke:none;fill-rule:evenodd;fill:rgb(100%,85.490196%,33.72549%);fill-opacity:1;" d="M 33.441406 9.351562 C 34.433594 9.351562 35.425781 9.351562 36.417969 9.351562 C 36.414062 11.226562 36.417969 13.097656 36.433594 14.96875 C 36.582031 16.019531 37.1875 16.578125 38.242188 16.648438 C 39.3125 16.59375 39.925781 16.035156 40.078125 14.96875 C 40.09375 13.097656 40.097656 11.226562 40.09375 9.351562 C 41.085938 9.351562 42.078125 9.351562 43.070312 9.351562 C 43.070312 12.578125 43.070312 15.800781 43.070312 19.027344 C 42.078125 19.027344 41.085938 19.027344 40.09375 19.027344 C 40.097656 18.609375 40.09375 18.191406 40.078125 17.777344 C 39.339844 18.691406 38.378906 19.148438 37.191406 19.148438 C 35.316406 19.105469 34.121094 18.179688 33.605469 16.371094 C 33.554688 16.140625 33.515625 15.90625 33.484375 15.671875 C 33.441406 13.566406 33.425781 11.460938 33.441406 9.351562 Z M 33.441406 9.351562 "/>
<path style=" stroke:none;fill-rule:evenodd;fill:rgb(49.803922%,21.960784%,84.313725%);fill-opacity:1;" d="M 86.339844 9.351562 C 87.335938 9.351562 88.328125 9.351562 89.320312 9.351562 C 89.320312 12.578125 89.320312 15.800781 89.320312 19.027344 C 88.328125 19.027344 87.335938 19.027344 86.339844 19.027344 C 86.339844 15.800781 86.339844 12.578125 86.339844 9.351562 Z M 86.339844 9.351562 "/>
</g>
</svg>
