<?xml version="1.0" encoding="UTF-8"?>
<!DOCTYPE svg PUBLIC "-//W3C//DTD SVG 1.1//EN" "http://www.w3.org/Graphics/SVG/1.1/DTD/svg11.dtd">
<svg xmlns="http://www.w3.org/2000/svg" version="1.1" width="3291px" height="852px" style="shape-rendering:geometricPrecision; text-rendering:geometricPrecision; image-rendering:optimizeQuality; fill-rule:evenodd; clip-rule:evenodd" xmlns:xlink="http://www.w3.org/1999/xlink">
<g><path style="opacity:0.996" fill="#7e38d7" d="M 2878.5,168.5 C 2908.03,164.353 2930.2,175.02 2945,200.5C 2954.76,232.133 2944.93,255.299 2915.5,270C 2892.28,277.581 2870.61,274.581 2850.5,261C 2834.21,245.337 2829.04,226.504 2835,204.5C 2843.06,184.592 2857.56,172.592 2878.5,168.5 Z"/></g>
<g><path style="opacity:1" fill="#ffdb57" d="M 647.5,414.5 C 641.464,364.917 615.464,330.417 569.5,311C 504.928,290.916 452.594,307.749 412.5,361.5C 390.908,327.46 359.908,308.293 319.5,304C 286.697,299.95 257.03,307.617 230.5,327C 223.959,332.04 218.292,337.874 213.5,344.5C 212.833,331.833 212.167,319.167 211.5,306.5C 179.167,306.5 146.833,306.5 114.5,306.5C 114.5,412.167 114.5,517.833 114.5,623.5C 146.833,623.5 179.167,623.5 211.5,623.5C 211.333,562.499 211.5,501.499 212,440.5C 216.94,406.113 236.773,388.447 271.5,387.5C 306.514,387.681 327.014,405.015 333,439.5C 333.5,500.832 333.667,562.166 333.5,623.5C 365.5,623.5 397.5,623.5 429.5,623.5C 429.333,563.166 429.5,502.832 430,442.5C 432.006,414.844 446.173,397.01 472.5,389C 492.458,384.552 511.125,387.552 528.5,398C 541.337,408.504 548.837,422.004 551,438.5C 551.5,500.166 551.667,561.832 551.5,623.5C 583.5,623.5 615.5,623.5 647.5,623.5C 647.5,647.5 647.5,671.5 647.5,695.5C 445.832,695.507 244.165,695.674 42.5,696C 25.0308,695.021 12.8641,686.521 6,670.5C 4.33333,665.5 2.66667,660.5 1,655.5C 0.333333,614.167 0.333333,572.833 1,531.5C 32.1834,529.591 55.5167,515.258 71,488.5C 84.6962,453.645 78.1962,423.145 51.5,397C 36.5223,385.507 19.5223,379.673 0.5,379.5C 0.333342,334.499 0.500009,289.499 1,244.5C 5.24364,222.598 17.7436,207.765 38.5,200C 67.6336,198.858 96.8003,198.358 126,198.5C 299.832,199.377 473.666,199.71 647.5,199.5C 647.5,271.167 647.5,342.833 647.5,414.5 Z"/></g>
<g><path style="opacity:0.998" fill="#7e38d7" d="M 1518.5,202.5 C 1551.17,202.5 1583.83,202.5 1616.5,202.5C 1616.33,279.501 1616.5,356.501 1617,433.5C 1647.92,391.322 1679.09,349.322 1710.5,307.5C 1750.83,306.167 1791.17,306.167 1831.5,307.5C 1787.64,360.188 1743.98,413.021 1700.5,466C 1744.83,518.333 1789.17,570.667 1833.5,623C 1792.83,623.667 1752.17,623.667 1711.5,623C 1680.12,579.745 1648.62,536.578 1617,493.5C 1616.5,536.832 1616.33,580.165 1616.5,623.5C 1583.83,623.5 1551.17,623.5 1518.5,623.5C 1518.5,483.167 1518.5,342.833 1518.5,202.5 Z"/></g>
<g><path style="opacity:0.999" fill="#ffda56" d="M 827.5,301.5 C 868.114,298.086 902.28,311.086 930,340.5C 932.248,343.328 934.248,346.328 936,349.5C 936.5,335.171 936.667,320.837 936.5,306.5C 969.167,306.5 1001.83,306.5 1034.5,306.5C 1034.5,412.167 1034.5,517.833 1034.5,623.5C 1001.83,623.5 969.167,623.5 936.5,623.5C 936.667,609.163 936.5,594.829 936,580.5C 919.896,603.577 898.063,618.411 870.5,625C 806.174,636.906 756.674,615.406 722,560.5C 701.383,520.13 694.383,477.463 701,432.5C 706.785,387.402 727.618,351.236 763.5,324C 783.068,311.201 804.401,303.701 827.5,301.5 Z M 856.5,387.5 C 899.586,385.425 925.753,405.425 935,447.5C 938.396,468.337 935.729,488.337 927,507.5C 906.474,539.457 877.974,549.623 841.5,538C 817.35,526.836 803.517,508.003 800,481.5C 795.431,456.004 800.431,432.671 815,411.5C 826.134,398.687 839.968,390.687 856.5,387.5 Z"/></g>
<g><path style="opacity:0.998" fill="#7e38d7" d="M 1978.5,301.5 C 2012.03,298.876 2042.03,307.709 2068.5,328C 2075.41,334.236 2081.57,341.069 2087,348.5C 2087.5,334.504 2087.67,320.504 2087.5,306.5C 2120.17,306.5 2152.83,306.5 2185.5,306.5C 2185.5,412.167 2185.5,517.833 2185.5,623.5C 2152.83,623.5 2120.17,623.5 2087.5,623.5C 2087.67,609.163 2087.5,594.829 2087,580.5C 2068.49,606.517 2043.33,622.017 2011.5,627C 1940.81,633.415 1891.31,604.249 1863,539.5C 1849.83,500.98 1846.83,461.647 1854,421.5C 1862.29,376.347 1885.79,341.847 1924.5,318C 1941.58,309.069 1959.58,303.569 1978.5,301.5 Z M 2007.5,387.5 C 2050.16,385.339 2076.33,405.006 2086,446.5C 2089.79,468.513 2086.79,489.513 2077,509.5C 2059.05,536.88 2033.89,547.38 2001.5,541C 1972.17,531.878 1955.34,512.045 1951,481.5C 1947.63,460.194 1950.63,439.86 1960,420.5C 1971.33,402.926 1987.16,391.926 2007.5,387.5 Z"/></g>
<g><path style="opacity:0.997" fill="#7e38d7" d="M 2624.5,301.5 C 2669.54,297.915 2709.54,310.081 2744.5,338C 2768.81,360.773 2784.14,388.607 2790.5,421.5C 2755.83,421.667 2721.17,421.5 2686.5,421C 2674.55,392.356 2653.22,381.023 2622.5,387C 2600.69,394.153 2587.19,408.986 2582,431.5C 2577.33,453.833 2577.33,476.167 2582,498.5C 2593.45,536.974 2618.61,551.141 2657.5,541C 2671.71,534.454 2681.38,523.788 2686.5,509C 2721.17,508.5 2755.83,508.333 2790.5,508.5C 2777.5,567.332 2742.17,605.499 2684.5,623C 2643.83,632.703 2604.17,629.703 2565.5,614C 2514.82,588.937 2486.32,548.103 2480,491.5C 2474.49,449.874 2481.49,410.54 2501,373.5C 2529.91,328.815 2571.07,304.815 2624.5,301.5 Z"/></g>
<g><path style="opacity:0.998" fill="#7e38d7" d="M 3117.5,301.5 C 3144.67,299.854 3171.01,303.687 3196.5,313C 3238.3,332.061 3261.3,364.561 3265.5,410.5C 3235.5,410.667 3205.5,410.5 3175.5,410C 3170.73,389.234 3157.73,377.567 3136.5,375C 3121.03,372.318 3107.87,376.485 3097,387.5C 3092,398.715 3094.16,408.215 3103.5,416C 3111.43,420.312 3119.77,423.645 3128.5,426C 3160.44,432.734 3191.44,442.401 3221.5,455C 3264.38,481.963 3277.21,519.463 3260,567.5C 3247.82,591.014 3229.32,607.514 3204.5,617C 3163.19,631.166 3121.52,632.166 3079.5,620C 3046.87,609.956 3021.7,590.456 3004,561.5C 2997.05,548.352 2993.21,534.352 2992.5,519.5C 3024.83,519.5 3057.17,519.5 3089.5,519.5C 3091.71,536.55 3101.04,547.717 3117.5,553C 3129.78,556.827 3142.11,557.16 3154.5,554C 3171.76,549.294 3177.93,538.461 3173,521.5C 3170.05,516.555 3165.89,513.055 3160.5,511C 3137.05,502.183 3113.05,495.183 3088.5,490C 3067.16,485.565 3047.83,476.898 3030.5,464C 3008.32,444.141 2999.15,419.308 3003,389.5C 3008.04,357.901 3024.54,334.401 3052.5,319C 3073.14,308.925 3094.81,303.091 3117.5,301.5 Z"/></g>
<g><path style="opacity:0.999" fill="#fffefe" d="M 647.5,414.5 C 648.805,484.324 648.805,553.991 647.5,623.5C 615.5,623.5 583.5,623.5 551.5,623.5C 551.667,561.832 551.5,500.166 551,438.5C 548.837,422.004 541.337,408.504 528.5,398C 511.125,387.552 492.458,384.552 472.5,389C 446.173,397.01 432.006,414.844 430,442.5C 429.5,502.832 429.333,563.166 429.5,623.5C 397.5,623.5 365.5,623.5 333.5,623.5C 333.667,562.166 333.5,500.832 333,439.5C 327.014,405.015 306.514,387.681 271.5,387.5C 236.773,388.447 216.94,406.113 212,440.5C 211.5,501.499 211.333,562.499 211.5,623.5C 179.167,623.5 146.833,623.5 114.5,623.5C 114.5,517.833 114.5,412.167 114.5,306.5C 146.833,306.5 179.167,306.5 211.5,306.5C 211.168,319.517 211.501,332.517 212.5,345.5C 213.107,345.376 213.44,345.043 213.5,344.5C 218.292,337.874 223.959,332.04 230.5,327C 257.03,307.617 286.697,299.95 319.5,304C 359.908,308.293 390.908,327.46 412.5,361.5C 452.594,307.749 504.928,290.916 569.5,311C 615.464,330.417 641.464,364.917 647.5,414.5 Z"/></g>
<g><path style="opacity:1" fill="#7f38d7" d="M 2443.5,302.5 C 2446.5,302.5 2449.5,302.5 2452.5,302.5C 2452.5,337.167 2452.5,371.833 2452.5,406.5C 2438.83,406.333 2425.16,406.5 2411.5,407C 2372.44,410.728 2352.94,432.228 2353,471.5C 2352.5,522.166 2352.33,572.832 2352.5,623.5C 2319.83,623.5 2287.17,623.5 2254.5,623.5C 2254.5,517.833 2254.5,412.167 2254.5,306.5C 2287.17,306.5 2319.83,306.5 2352.5,306.5C 2352.33,323.503 2352.5,340.503 2353,357.5C 2374.84,325.493 2405.01,307.16 2443.5,302.5 Z"/></g>
<g><path style="opacity:1" fill="#ffe897" d="M 211.5,306.5 C 212.167,319.167 212.833,331.833 213.5,344.5C 213.44,345.043 213.107,345.376 212.5,345.5C 211.501,332.517 211.168,319.517 211.5,306.5 Z"/></g>
<g><path style="opacity:0.999" fill="#ffda56" d="M 1100.5,306.5 C 1133.17,306.5 1165.83,306.5 1198.5,306.5C 1198.33,367.834 1198.5,429.168 1199,490.5C 1203.96,524.959 1223.79,543.293 1258.5,545.5C 1293.74,543.757 1313.91,525.423 1319,490.5C 1319.5,429.168 1319.67,367.834 1319.5,306.5C 1352.17,306.5 1384.83,306.5 1417.5,306.5C 1417.5,412.167 1417.5,517.833 1417.5,623.5C 1384.83,623.5 1352.17,623.5 1319.5,623.5C 1319.67,609.829 1319.5,596.163 1319,582.5C 1294.68,612.487 1263.02,627.487 1224,627.5C 1162.26,626.077 1122.92,595.744 1106,536.5C 1104.34,528.89 1103.01,521.223 1102,513.5C 1100.56,444.514 1100.06,375.514 1100.5,306.5 Z"/></g>
<g><path style="opacity:0.999" fill="#7f38d7" d="M 2841.5,306.5 C 2874.17,306.5 2906.83,306.5 2939.5,306.5C 2939.5,412.167 2939.5,517.833 2939.5,623.5C 2906.83,623.5 2874.17,623.5 2841.5,623.5C 2841.5,517.833 2841.5,412.167 2841.5,306.5 Z"/></g>
</svg>
